# AST/ASF file generated using VICON BodyLanguage
# -----------------------------------------------
:version 1.10
:name VICON
:units
  mass 1.0
  length 0.45
  angle deg
:documentation
   .ast/.asf automatically generated from VICON data using
   VICON BodyBuilder and BodyLanguage model FoxedUp or BRILLIANT.MOD
:root
   order TX TY TZ RX RY RZ
   axis XYZ
   position 0 0 0  
   orientation 0 0 0 
:bonedata
  begin
     id 1 
     name lhipjoint
     direction 0.573633 -0.743009 0.344793 
     length 2.46257 
     axis 0 0 0  XYZ
  end
  begin
     id 2 
     name lfemur
     direction 0.34202 -0.939693 0  
     length 7.3842  
     axis 0 0 20  XYZ
    dof rx ry rz
    limits (-160.0 20.0)
           (-70.0 70.0)
           (-60.0 70.0)
  end
  begin
     id 3 
     name ltibia
     direction 0.34202 -0.939693 0   
     length 7.50407   
     axis 0 0 20   XYZ
    dof rx
    limits (-10.0 170.0)
  end
  begin
     id 4 
     name lfoot
     direction 0.110749 -0.304281 0.946123   
     length 1.95925   
     axis -90 7.62852e-016 20   XYZ
    dof rx rz
    limits (-45.0 90.0)
           (-70.0 20.0)
  end
  begin
     id 5 
     name ltoes
     direction 1.53554e-011 -4.21843e-011 1   
     length 0.978318   
     axis -90 7.62852e-016 20   XYZ
    dof rx
    limits (-90.0 20.0)
  end
  begin
     id 6 
     name rhipjoint
     direction -0.488109 -0.791693 0.367385   
     length 2.31113  
     axis 0 0 0  XYZ 
  end
  begin
     id 7 
     name rfemur
     direction -0.34202 -0.939693 0   
     length 7.40965   
     axis 0 0 -20   XYZ
    dof rx ry rz
    limits (-160.0 20.0)
           (-70.0 70.0)
           (-70.0 60.0)
  end
  begin
     id 8 
     name rtibia
     direction -0.34202 -0.939693 0   
     length 7.55548   
     axis 0 0 -20   XYZ
    dof rx
    limits (-10.0 170.0)
 end
 begin
     id 9 
     name rfoot
     direction -0.127594 -0.350561 0.927808   
     length 2.07199  
     axis -90 -7.62852e-016 -20   XYZ
    dof rx rz
    limits (-45.0 90.0)
           (-20.0 70.0)
  end
  begin
     id 10 
     name rtoes
     direction -1.53542e-011 -4.21909e-011 1   
     length 1.02667   
     axis -90 -7.62852e-016 -20   XYZ
    dof rx
    limits (-90.0 20.0)
  end
  begin
     id 11 
     name lowerback
     direction -0.0103342 0.997298 -0.0727278   
     length 2.02836   
     axis 0 0 0   XYZ
    dof rx ry rz
    limits (-20.0 45.0)
           (-30.0 30.0)
           (-30.0 30.0)
  end
  begin
     id 12 
     name upperback
     direction 0.0171146 0.999786 -0.011606   
     length 2.03179   
     axis 0 0 0   XYZ
    dof rx ry rz
    limits (-20.0 45.0)
           (-30.0 30.0)
           (-30.0 30.0)
  end
  begin
     id 13 
     name thorax
     direction 0.0216927 0.999513 0.0224343   
     length 2.03882   
     axis 0 0 0   XYZ
    dof rx ry rz
    limits (-20.0 45.0)
           (-30.0 30.0)
           (-30.0 30.0)
  end
  begin
     id 14 
     name lowerneck
     direction 0.000989287 0.993907 0.110221   
     length 1.75428   
     axis 0 0 0   XYZ
    dof rx ry rz
    limits (-20.0 45.0)
           (-30.0 30.0)
           (-30.0 30.0)
  end
  begin
     id 15 
     name upperneck
     direction -0.0172474 0.994813 -0.100253   
     length 1.77058   
     axis 0 0 0   XYZ
    dof rx ry rz
    limits (-20.0 45.0)
           (-30.0 30.0)
           (-30.0 30.0)
  end
  begin
     id 16
     name head
     direction -0.00486455 0.99894 -0.0457663  
     length 1.77427  
     axis 0 0 0   XYZ
    dof rx ry rz
    limits (-20.0 45.0)
           (-30.0 30.0)
           (-30.0 30.0)
  end
  begin
     id 17 
     name lclavicle
     direction 0.927314 0.333734 -0.169441  
     length 3.97584  
     axis 0 0 0   XYZ
    dof ry rz
    limits (-20.0 10.0)
           (0.0 20.0)
  end
  begin
     id 18 
     name lhumerus
     direction 1 -4.48965e-011 -3.25313e-028   
     length 4.76468   
     axis 180 -30 -90   XYZ
    dof rx ry rz
    limits (-60.0 90.0)
           (-90.0 90.0)
           (-90.0 90.0)
  end
  begin
     id 19
     name lradius
     direction 1 -4.48969e-011 -2.8465e-028   
     length 3.52712   
     axis -180 -30 -90   XYZ
    dof rx
    limits (-10.0 170.0)
  end
  begin
     id 20
     name lwrist
     direction 1 -4.4896e-011 -7.78665e-028   
     length 1.76356   
     axis 1.91374e-015 90 90   XYZ
    dof ry
    limits (-180.0 0.0)
 end
  begin
     id 21 
     name lhand
     direction 1 -4.48959e-011 -1.55733e-027   
     length 0.859564   
     axis 9.9371e-016 90 90   XYZ
    dof rx rz
    limits (-90.0 90.0)
           (-45.0 45.0)
  end
  begin
     id 22 
     name lfingers
     direction 1 -4.48965e-011 -3.11466e-027   
     length 0.693002   
     axis 1.98742e-015 90 90   XYZ
    dof rx
    limits (0.0 90.0)
  end
  begin
     id 23
     name lthumb
     direction 0.707107 -6.34948e-011 0.707107   
     length 0.995017   
     axis -90 45 2.85299e-015   XYZ
    dof rx rz
    limits (-45.0 45.0)
           (-45.0 45.0)
  end
  begin
     id 24 
     name rclavicle
     direction -0.899388 0.348209 -0.264294   
     length 3.68366  
     axis 0 0 0   XYZ 
    dof ry rz
    limits (-10.0 20.0)
           (-20.0 0.0)
  end
  begin
     id 25 
     name rhumerus
     direction -1 -4.48965e-011 -3.01536e-027  
     length 4.90577   
     axis 180 30 90   XYZ
    dof rx ry rz
    limits (-90.0 60.0)
           (-90.0 90.0)
           (-90.0 90.0)
  end
  begin
     id 26 
     name rradius
     direction -1 -4.48966e-011 3.93291e-027   
     length 3.42692   
     axis -180 30 90   XYZ
    dof rx
    limits (-10.0 170.0)
  end
  begin
     id 27 
     name rwrist
     direction -1 -4.48969e-011 -7.78665e-028   
     length 1.71346   
     axis 1.91374e-015 -90 -90   XYZ
    dof ry
    limits (-180.0 0.0)
  end
  begin
     id 28
     name rhand
     direction -1 -4.48967e-011 -1.55733e-027   
     length 0.740957   
     axis 9.9371e-016 -90 -90   XYZ
    dof rx rz
    limits (-90.0 90.0)
           (-45.0 45.0)
  end
  begin
     id 29
     name rfingers
     direction -1 -4.48949e-011 -3.11466e-027   
     length 0.597378   
     axis 1.98742e-015 -90 -90   XYZ
    dof rx
    limits (0.0 90.0)
  end
  begin
     id 30
     name rthumb
     direction -0.707107 -6.34931e-011 0.707107   
     length 0.857719   
     axis -90 -45 -2.85299e-015   XYZ
    dof rx rz
    limits (-45.0 45.0)
           (-45.0 45.0)
  end
:hierarchy
  begin
    root lhipjoint rhipjoint lowerback
    lhipjoint lfemur
    lfemur ltibia
    ltibia lfoot
    lfoot ltoes
    rhipjoint rfemur
    rfemur rtibia
    rtibia rfoot
    rfoot rtoes
    lowerback upperback
    upperback thorax
    thorax lowerneck lclavicle rclavicle
    lowerneck upperneck
    upperneck head
    lclavicle lhumerus
    lhumerus lradius
    lradius lwrist
    lwrist lhand lthumb
    lhand lfingers
    rclavicle rhumerus
    rhumerus rradius
    rradius rwrist
    rwrist rhand rthumb
    rhand rfingers
  end

#!OML:ASF I:\AllaLogoMonkeySwing\Project 1\Capture day 1\Session 1\Subject1.ASF
:FULLY-SPECIFIED
:DEGREES
16
root 0.0203207 17.429 -19.476 8.40136 1.41047 2.09594
lowerback 9.35248 -0.390829 -4.57634
upperback 1.23365 -0.923649 1.37711
thorax -3.86559 -0.382634 4.13188
lowerneck -12.5884 0.665632 -1.39638
upperneck 20.5234 1.26163 -0.169618
head 8.45228 0.468978 0.314123
rclavicle -4.96962e-016 -2.10712e-014
rhumerus -30.1337 -15.3082 -82.6568
rradius 27.3503
rwrist 0.676431
rhand -6.74093 -38.6259
rfingers 7.12502
rthumb 19.12 -67.7061
lclavicle -4.96962e-016 -2.10712e-014
lhumerus -39.1134 11.7891 86.3099
lradius 41.9559
lwrist -0.872274
lhand -6.53475 -14.4463
lfingers 7.12502
lthumb 19.3182 14.6141
rfemur -21.4443 -1.6532 21.1835
rtibia 42.3133
rfoot -27.4558 -3.36219
rtoes 23.1848
lfemur -15.0166 3.09476 -24.2197
ltibia 30.8612
lfoot -27.7812 -0.753897
ltoes -22.5481
17
root -0.00313742 17.4187 -19.4302 8.64926 1.63695 2.13095
lowerback 9.58593 -0.451137 -4.4925
upperback 1.24777 -1.00527 1.37174
thorax -3.97397 -0.421476 4.09347
lowerneck -12.3549 0.715127 -1.46855
upperneck 20.153 1.32009 -0.0902121
head 8.28322 0.502686 0.356241
rclavicle -1.32192e-014 9.54166e-015
rhumerus -30.3634 -14.9794 -82.8742
rradius 27.4829
rwrist 0.54356
rhand -6.8136 -38.388
rfingers 7.12502
rthumb 19.0501 -67.4751
lclavicle -1.32192e-014 9.54166e-015
lhumerus -39.1036 11.325 86.5025
lradius 42.0655
lwrist -0.680483
lhand -6.59826 -14.5126
lfingers 7.12502
lthumb 19.2572 14.554
rfemur -21.9155 -2.08772 21.3207
rtibia 43.1221
rfoot -27.2059 -3.59947
rtoes 20.4772
lfemur -15.1339 2.85179 -24.1311
ltibia 30.8584
lfoot -27.9721 -0.64036
ltoes -22.7725
18
root -0.0290118 17.4071 -19.3803 8.97253 1.89337 2.21896
lowerback 9.76327 -0.526293 -4.45321
upperback 1.22781 -1.10918 1.36168
thorax -4.0839 -0.470032 4.07802
lowerneck -12.26 0.744904 -1.30149
upperneck 19.9142 1.37512 -0.339333
head 8.18874 0.518587 0.249746
rclavicle 1.35174e-014 -4.77083e-015
rhumerus -30.5217 -14.7048 -83.0995
rradius 27.5365
rwrist 0.524219
rhand -6.89967 -38.4166
rfingers 7.12502
rthumb 18.9673 -67.5118
lclavicle 1.35174e-014 -4.77083e-015
lhumerus -39.0714 10.9985 86.6718
lradius 42.1035
lwrist -0.670295
lhand -6.62728 -14.6769
lfingers 7.12502
lthumb 19.2293 14.3924
rfemur -22.4794 -2.7979 21.4434
rtibia 43.9704
rfoot -27.1729 -3.74943
rtoes 18.1907
lfemur -15.3214 2.50225 -24.0914
ltibia 30.874
lfoot -28.1705 -0.534236
ltoes -22.9579
19
root -0.0556411 17.3992 -19.3191 9.22592 2.07469 2.37848
lowerback 9.93981 -0.567841 -4.48208
upperback 1.24121 -1.17625 1.32767
thorax -4.1615 -0.500962 4.07124
lowerneck -12.4296 0.755974 -1.14675
upperneck 19.9132 1.39548 -0.50235
head 8.22162 0.523045 0.172719
rclavicle -1.89839e-014 1.55052e-014
rhumerus -30.5989 -14.4407 -83.3316
rradius 27.4937
rwrist 0.536144
rhand -7.00962 -38.6782
rfingers 7.12502
rthumb 18.8616 -67.7837
lclavicle -1.89839e-014 1.55052e-014
lhumerus -38.9801 10.8118 86.827
lradius 42.0713
lwrist -0.976142
lhand -6.65796 -14.688
lfingers 7.12502
lthumb 19.1998 14.3842
rfemur -22.9887 -3.31381 21.4337
rtibia 44.8427
rfoot -27.1978 -3.37015
rtoes 19.5253
lfemur -15.3783 2.25437 -24.1363
ltibia 30.9063
lfoot -28.4708 -0.527332
ltoes -23.1207
20
root -0.0810516 17.3908 -19.2469 9.35045 2.12821 2.40179
lowerback 10.1849 -0.570787 -4.3955
upperback 1.26944 -1.17983 1.34601
thorax -4.26947 -0.501417 4.04745
lowerneck -12.5078 0.770385 -1.1336
upperneck 19.8762 1.41864 -0.527003
head 8.22368 0.532588 0.165066
rclavicle 1.40143e-014 -6.36111e-015
rhumerus -30.8122 -14.1532 -83.4533
rradius 27.5297
rwrist 0.312818
rhand -7.04494 -38.7926
rfingers 7.12502
rthumb 18.8276 -67.9015
lclavicle 1.40143e-014 -6.36111e-015
lhumerus -38.9534 10.7679 86.9863
lradius 42.0674
lwrist -1.25156
lhand -6.73932 -14.484
lfingers 7.12502
lthumb 19.1215 14.5961
rfemur -23.3181 -3.61988 21.4947
rtibia 45.7268
rfoot -26.828 -2.8467
rtoes 20.6184
lfemur -15.2194 2.03986 -24.0552
ltibia 30.8983
lfoot -28.8296 -0.432191
ltoes -22.9685
